PathFileType	4	(X/Y/Z)	7_2_29_p1_0-135.trc
DataRate	CameraRate	NumFrames	NumMarkers	Units	OrigDataRate	OrigDataStartFrame	OrigNumFrames
60.0	60.0	4	27	m	60.0	0	136
Frame#	Time	RHip			RKnee			RAnkle			RBigToe			RSmallToe			RHeel			LHip			LKnee			LAnkle			LBigToe			LSmallToe			LHeel			Neck			Head			Nose			RShoulder			RElbow			RWrist			RThumb			RIndex			RPinky			LShoulder			LElbow			LWrist			LThumb			LIndex			LPinky			
		X1	Y1	Z1	X2	Y2	Z2	X3	Y3	Z3	X4	Y4	Z4	X5	Y5	Z5	X6	Y6	Z6	X7	Y7	Z7	X8	Y8	Z8	X9	Y9	Z9	X10	Y10	Z10	X11	Y11	Z11	X12	Y12	Z12	X13	Y13	Z13	X14	Y14	Z14	X15	Y15	Z15	X16	Y16	Z16	X17	Y17	Z17	X18	Y18	Z18	X19	Y19	Z19	X20	Y20	Z20	X21	Y21	Z21	X22	Y22	Z22	X23	Y23	Z23	X24	Y24	Z24	X25	Y25	Z25	X26	Y26	Z26	X27	Y27	Z27	
0	0.0	0.29381099689765827	0.2992857599379248	1.1616929135473582	0.2967634361801767	0.28832881593017207	1.5932428237993435	0.27736458938974257	0.3096861475491327	2.051072471404752	0.2574419199264697	0.09961805189279757	2.0023803247220955	0.3100038503161363	0.12077621186940346	2.0046983110161816	0.26068082356489536	0.33744708769841475	2.1124470064088134	0.07153613955694249	0.30462339264482013	1.1800884695410894	0.0977129866027929	0.28901869816254394	1.5848432100173981	0.10921720506427052	0.2578951158474851	2.0039670281506186	0.10910100501554575	0.08634069676595457	2.0005812827270066	0.06197959134753286	0.11940035427225837	1.9846998225533157	0.1200347780203845	0.30629848205482496	2.075536357747748	0.1848291715503919	0.35406624356819955	0.6243929862415908	0.18757297636598	0.3467331602316934	0.38100434283878587	0.18696956239743195	0.28669353463457276	0.49654801344670185	0.34823974141685127	0.35108303451089884	0.7081054068352057	0.3648978226681912	0.22434227448600827	0.9361009666109364	0.23136433493877934	0.1491518532162227	1.1197813565710824	0.1487599660014223	0.17499688058599974	1.221459397230178	0.1393692501576531	0.18499096293842301	1.2408000051741341	0.1556867410829485	0.1459545375377177	1.2259872734655193	0.03062154210067241	0.36623756619163905	0.7015590225913579	0.003849983884816986	0.25929874304183675	0.9347207819704797	0.09500043132357734	0.13800195474635393	1.1147407818071553	0.19893269750686163	0.14802077432355987	1.1723762961243296	0.20215508055125433	0.1382611672733699	1.207180083381558	0.1452257009593443	0.17031239404712045	1.2451658386111968
1	0.016666666666666666	0.2937569039123184	0.2992508677246002	1.1618673755692674	0.2967395717533621	0.28826010979215755	1.5932053328838631	0.28149642792605034	0.29523111765959764	2.039836392442688	0.2529355893583096	0.09723708152762052	2.0008448093154607	0.31001752273871486	0.12080558284475051	2.0048677883485424	0.26093490543346926	0.3374711360394579	2.112674810269035	0.07238807693827541	0.3046954903251458	1.1860791897087721	0.09777847438791526	0.2890413255817501	1.5948447823352816	0.1097111700252583	0.2556253380135577	2.0076165351145776	0.10638137446700013	0.07513808167125595	1.9911333636744493	0.059058877554985886	0.10683615020323756	1.9845415732331746	0.12003850765473767	0.30573516827198227	2.0755568762832244	0.18502883537671977	0.35314954231312984	0.6278393016642327	0.18749162762132218	0.3460136630352949	0.38443146514475796	0.18695059910292497	0.28677568396621056	0.4964897593519375	0.3481677902197776	0.35105342229101033	0.707926065507911	0.3684024126322864	0.2119721928714473	0.9308050695532216	0.23135413380612602	0.14902054114850286	1.1192812229458549	0.14579846928378704	0.17448748445423057	1.2201107887638651	0.13584972063735815	0.18408375655651243	1.239176527793597	0.15217624315139533	0.1571320326451643	1.228363427119239	0.030432746133265923	0.36571605977663735	0.7047731085483864	0.0037951210343108053	0.259227113941276	0.9345610229070578	0.09496576747617261	0.13797322285749955	1.1147085612115748	0.19882714725322487	0.14813081827274655	1.172423662010686	0.20212190836594834	0.13841062906978857	1.2073345729164873	0.14583257605464783	0.17073984003729178	1.2496471066265573
2	0.03333333333333333	0.29043778926673447	0.29954022453676327	1.1624503454681636	0.2977129572298668	0.288905140539946	1.598287284328575	0.2820550936799046	0.2931345074883931	2.0435525678640225	0.25738532490662286	0.09949384189700221	2.002321702433964	0.31358478513795807	0.10734736212005597	1.9938281929807689	0.2615629134485284	0.3379780083728421	2.113792008976667	0.06887515590560424	0.30431069698578	1.1827278502716583	0.0978034572191119	0.2889642074544783	1.5950546176152305	0.10972959982757148	0.2557102639719964	2.0076834071722285	0.10629693781517491	0.07514005601480404	1.9908636737201721	0.057054123775918925	0.12860860235664345	1.993170519608679	0.12000091956636753	0.3057674781944536	2.0754191931348753	0.1850251321839189	0.35314422037342164	0.6279059547491594	0.1874741854768708	0.3468275786272571	0.3815530845030257	0.18695111111233886	0.2868504208523589	0.49642089838336	0.34815154347212607	0.3510797414495096	0.7081549826546868	0.3684278269917033	0.21198926971571136	0.9307914141647925	0.23139891746246696	0.14892396804111374	1.119294145742631	0.14116044260491634	0.18683569093959337	1.2238507126773095	0.13921181858541368	0.19457235131908424	1.2434241310547196	0.15187066069343502	0.1566828027302656	1.2304525566706048	0.0303784772425447	0.3657047981557939	0.7048937327729063	1.1369293859940656e-06	0.256501313104378	0.9341023696384902	0.09493257403928633	0.1380473549692588	1.1144804137505606	0.19915515826247684	0.15002626059770788	1.1725747711690901	0.2020874986969699	0.13843609197050488	1.2072069236014331	0.14977756956686286	0.1590491498039368	1.23883631006593
3	0.05	0.28938064125095586	0.30022570718641944	1.1542376352506536	0.29750394732280677	0.29078329913827994	1.5948551405313918	0.28279757252598303	0.2962780652527009	2.046416931435251	0.2527946927484731	0.09719574271351546	2.001366457838422	0.30996522480080785	0.12045784542242964	2.004891764760766	0.2628011318894127	0.33934159212148346	2.122042509729547	0.06884655217996584	0.3041239909522493	1.1824429494666087	0.09865826199917359	0.2891465459512621	1.5907769237591085	0.10980767149073091	0.2559190362924805	2.00760613366572	0.10838728834691669	0.08492294173018344	1.9936058348832089	0.05661869061562408	0.13121481911508653	1.989200759262171	0.12007195990689078	0.3058674263203608	2.075291213303379	0.18501941601666239	0.35312370579102553	0.6280209585890814	0.1876223845619848	0.3460667282688774	0.38452640261592846	0.18312815712341096	0.2845717587474225	0.4960964896767731	0.3479506513406551	0.35051421261196475	0.7117774426276773	0.36498306971466243	0.22443379314373743	0.9356101392731514	0.23131855311758573	0.1489334813706057	1.119160511175702	0.1524456533325655	0.18597959802296407	1.2246428449331241	0.1416578369199944	0.1951410640893505	1.2478332416701878	0.1568795446129486	0.14368256622286898	1.2319181867151683	0.030388246971966903	0.3660125715967871	0.7052300774177361	-8.540026715090694e-05	0.2566098433816955	0.934263930862959	0.09787878748205844	0.1477780458450777	1.1186495610824438	0.1996080776764167	0.1500709851163887	1.1728251394709122	0.20271164067294703	0.1388340157637117	1.2076774449047982	0.14548498358137799	0.1704622062330081	1.2523755634557192
